<svg width="855" height="210" viewBox="0 0 855 210" fill="none" xmlns="http://www.w3.org/2000/svg">
<path d="M80 190H70V210H80V190Z" fill="#7DFB9A"/>
<path d="M100 190H90V210H100V190Z" fill="#7DFB9A"/>
<path d="M120 190H110V210H120V190Z" fill="#7DFB9A"/>
<path d="M140 190H130V210H140V190Z" fill="#7DFB9A"/>
<path d="M20 130H0V140H20V130Z" fill="#7DFB9A"/>
<path d="M20 110H0V120H20V110Z" fill="#7DFB9A"/>
<path d="M20 90H0V100H20V90Z" fill="#7DFB9A"/>
<path d="M20 70H0V80H20V70Z" fill="#7DFB9A"/>
<path d="M210 130H190V140H210V130Z" fill="#7DFB9A"/>
<path d="M210 110H190V120H210V110Z" fill="#7DFB9A"/>
<path d="M210 90H190V100H210V90Z" fill="#7DFB9A"/>
<path d="M210 70H190V80H210V70Z" fill="#7DFB9A"/>
<path d="M140 0H130V20H140V0Z" fill="#7DFB9A"/>
<path d="M120 0H110V20H120V0Z" fill="#7DFB9A"/>
<path d="M100 0H90V20H100V0Z" fill="#7DFB9A"/>
<path d="M80 0H70V20H80V0Z" fill="#7DFB9A"/>
<path d="M80 180H90V140H20V170C20 175.304 22.1071 180.391 25.8579 184.142C29.6086 187.893 34.6957 190 40 190H70C70 187.348 71.0536 184.804 72.9289 182.929C74.8043 181.054 77.3478 180 80 180Z" fill="#7DFB9A"/>
<path d="M135 130C138.978 130 142.794 128.42 145.607 125.607C148.42 122.794 150 118.978 150 115V75C150.003 72.9654 149.591 70.9516 148.791 69.0811C147.991 67.2105 146.818 65.5223 145.345 64.1192C143.872 62.716 142.128 61.6273 140.221 60.9191C138.313 60.211 136.282 59.8983 134.25 60C130.352 60.2655 126.703 62.0133 124.053 64.8847C121.403 67.756 119.953 71.5329 120 75.44V80H20V90H120V100H20V110H127.5C128.163 110 128.799 109.737 129.268 109.268C129.737 108.799 130 108.163 130 107.5V76C130 74.6739 130.527 73.4021 131.464 72.4645C132.402 71.5268 133.674 71 135 71C136.326 71 137.598 71.5268 138.536 72.4645C139.473 73.4021 140 74.6739 140 76V107.5C139.995 110.814 138.676 113.99 136.333 116.333C133.99 118.676 130.814 119.995 127.5 120H20V130H135Z" fill="#7DFB9A"/>
<path d="M110 140H100V190H110V140Z" fill="#7DFB9A"/>
<path d="M170 20H140V40H130V20H120V43.39C116.271 45.1697 112.886 47.5935 110 50.55V20H100V60H90V20H80V60H70V20H40C34.6957 20 29.6086 22.1071 25.8579 25.8579C22.1071 29.6086 20 34.6957 20 40V70H110.5C111.661 64.3575 114.732 59.2877 119.195 55.6447C123.657 52.0017 129.239 50.0082 135 50C141.234 50.0293 147.381 48.5397 152.91 45.66L162.69 40.56C163.789 39.9874 165.061 39.8433 166.26 40.1556C167.459 40.4678 168.5 41.2142 169.18 42.25C169.657 43.0051 169.93 43.8711 169.972 44.7633C170.014 45.6555 169.824 46.5434 169.42 47.34L163.55 59.4C161.193 64.2364 159.978 69.5497 160 74.93V115C160 121.63 157.366 127.989 152.678 132.678C147.989 137.366 141.63 140 135 140H120V180H130C132.652 180 135.196 181.054 137.071 182.929C138.946 184.804 140 187.348 140 190H170C175.304 190 180.391 187.893 184.142 184.142C187.893 180.391 190 175.304 190 170V140H159.46C162.416 137.114 164.84 133.729 166.62 130H190V120H169.64C169.877 118.344 169.997 116.673 170 115V110H190V100H170V90H190V80H170V75C169.997 73.327 169.877 71.6562 169.64 70H190V40C190 34.6957 187.893 29.6086 184.142 25.8579C180.391 22.1071 175.304 20 170 20Z" fill="#7DFB9A"/>
<path d="M298.548 135.565V15H280V135.565C280 147.863 284.885 159.658 293.582 168.354C302.278 177.05 314.073 181.935 326.371 181.935H409.839V163.387H326.371C318.992 163.387 311.915 160.456 306.697 155.238C301.48 150.02 298.548 142.944 298.548 135.565V135.565Z" fill="white"/>
<path d="M586.048 98.4677V181.935H604.597V98.4677C604.597 91.0887 607.528 84.0119 612.746 78.7942C617.964 73.5765 625.04 70.6452 632.419 70.6452H669.516V52.0968H632.419C620.121 52.0968 608.326 56.9823 599.63 65.6785C590.934 74.3747 586.048 86.1694 586.048 98.4677Z" fill="white"/>
<path d="M502.581 52.0968H437.661V70.6452H502.581C509.96 70.6452 517.036 73.5765 522.254 78.7942C527.472 84.0119 530.403 91.0887 530.403 98.4677V107.742H437.661C435.202 107.742 432.843 108.719 431.103 110.458C429.364 112.198 428.387 114.556 428.387 117.016V135.565C428.387 160.698 450.478 181.935 476.613 181.935H539.677C542.137 181.935 544.496 180.958 546.235 179.219C547.974 177.48 548.952 175.121 548.952 172.661V98.4677C548.952 86.1694 544.066 74.3747 535.37 65.6785C526.674 56.9823 514.879 52.0968 502.581 52.0968ZM530.403 163.387H476.613C460.81 163.387 446.935 150.403 446.935 135.565V126.29H530.403V163.387Z" fill="white"/>
<path d="M855 196.589L827.177 168.766V98.4677C827.177 86.1694 822.292 74.3748 813.596 65.6785C804.899 56.9823 793.105 52.0968 780.806 52.0968H706.613C704.153 52.0968 701.794 53.0739 700.055 54.8131C698.316 56.5524 697.339 58.9113 697.339 61.371V135.565C697.339 147.863 702.224 159.658 710.92 168.354C719.617 177.05 731.411 181.935 743.71 181.935H814.064L841.886 209.758L855 196.589ZM743.71 163.387C736.331 163.387 729.254 160.456 724.036 155.238C718.818 150.02 715.887 142.944 715.887 135.565V70.6452H780.806C788.186 70.6452 795.262 73.5765 800.48 78.7942C805.698 84.0119 808.629 91.0887 808.629 98.4677V150.273L778.098 119.724L764.966 132.856L795.515 163.387H743.71Z" fill="white"/>
</svg>
