<svg fill="none" height="210" viewBox="0 0 855 210" width="855" xmlns="http://www.w3.org/2000/svg"><g fill="#0a1d3c"><path d="m298.548 135.565v-120.565h-18.548v120.565c0 12.298 4.885 24.093 13.582 32.789 8.696 8.696 20.491 13.581 32.789 13.581h83.468v-18.548h-83.468c-7.379 0-14.456-2.931-19.674-8.149-5.217-5.218-8.149-12.294-8.149-19.673z"/><path d="m586.048 98.4677v83.4673h18.549v-83.4673c0-7.379 2.931-14.4558 8.149-19.6735s12.294-8.149 19.673-8.149h37.097v-18.5484h-37.097c-12.298 0-24.093 4.8855-32.789 13.5817-8.696 8.6963-13.582 20.4909-13.582 32.7892z"/><path d="m502.581 52.0968h-64.92v18.5484h64.92c7.379 0 14.455 2.9313 19.673 8.149s8.149 12.2945 8.149 19.6735v9.2743h-92.742c-2.459 0-4.818.977-6.558 2.716-1.739 1.74-2.716 4.098-2.716 6.558v18.549c0 25.133 22.091 46.37 48.226 46.37h63.064c2.46 0 4.819-.977 6.558-2.716s2.717-4.098 2.717-6.558v-74.1933c0-12.2983-4.886-24.0929-13.582-32.7892-8.696-8.6962-20.491-13.5817-32.789-13.5817zm27.822 111.2902h-53.79c-15.803 0-29.678-12.984-29.678-27.822v-9.275h83.468z"/><path d="m855 196.589-27.823-27.823v-70.2983c0-12.2983-4.885-24.0929-13.581-32.7892-8.697-8.6962-20.491-13.5817-32.79-13.5817h-74.193c-2.46 0-4.819.9771-6.558 2.7163-1.739 1.7393-2.716 4.0982-2.716 6.5579v74.194c0 12.298 4.885 24.093 13.581 32.789 8.697 8.696 20.491 13.581 32.79 13.581h70.354l27.822 27.823zm-111.29-33.202c-7.379 0-14.456-2.931-19.674-8.149s-8.149-12.294-8.149-19.673v-64.9198h64.919c7.38 0 14.456 2.9313 19.674 8.149s8.149 12.2945 8.149 19.6735v51.8053l-30.531-30.549-13.132 13.132 30.549 30.531z"/><path d="m169.686 20h-129.7598c-5.2946 0-10.3723 2.1071-14.1161 5.8579-3.7438 3.7507-5.847 8.8378-5.847 14.1421v130c0 5.304 2.1032 10.391 5.847 14.142s8.8215 5.858 14.1161 5.858h129.7598c5.295 0 10.372-2.107 14.116-5.858s5.847-8.838 5.847-14.142v-130c0-5.3043-2.103-10.3914-5.847-14.1421-3.744-3.7508-8.821-5.8579-14.116-5.8579z"/><path d="m79.8523 190h-9.9815v20h9.9815z"/><path d="m99.8154 190h-9.9815v20h9.9815z"/><path d="m119.778 190h-9.981v20h9.981z"/><path d="m139.742 190h-9.982v20h9.982z"/><path d="m19.9631 130h-19.9631v10h19.9631z"/><path d="m19.9631 110h-19.9631v10h19.9631z"/><path d="m19.9631 90h-19.9631v10h19.9631z"/><path d="m19.9631 70h-19.9631v10h19.9631z"/><path d="m209.612 130h-19.963v10h19.963z"/><path d="m209.612 110h-19.963v10h19.963z"/><path d="m209.612 90h-19.963v10h19.963z"/><path d="m209.612 70h-19.963v10h19.963z"/><path d="m139.742 0h-9.982v20h9.982z"/><path d="m119.778 0h-9.981v20h9.981z"/><path d="m99.8154 0h-9.9815v20h9.9815z"/><path d="m79.8523 0h-9.9815v20h9.9815z"/></g><path d="m169.686 75v5h19.963v-10h-20.322c.236 1.6562.356 3.327.359 5z" fill="#7dfb9a"/><path d="m159.166 140h30.483v-10h-23.337c-1.776 3.729-4.195 7.114-7.146 10z" fill="#7dfb9a"/><path d="m169.686 115c-.003 1.673-.123 3.344-.359 5h20.322v-10h-19.963z" fill="#7dfb9a"/><path d="m189.649 90h-19.963v10h19.963z" fill="#7dfb9a"/><path d="m79.8523 20h-9.9815v40h9.9815z" fill="#7dfb9a"/><path d="m139.742 20h-9.982v20h9.982z" fill="#7dfb9a"/><path d="m119.778 43.39v-23.39h-9.981v30.55c2.881-2.9565 6.26-5.3803 9.981-7.16z" fill="#7dfb9a"/><path d="m99.8154 20h-9.9815v40h9.9815z" fill="#7dfb9a"/><path d="m119.778 90h-94.8241-4.9908v10h99.8149z" fill="#7dfb9a"/><path d="m139.742 107.5v-31.5c0-1.3261-.526-2.5979-1.462-3.5355-.936-.9377-2.206-1.4645-3.529-1.4645-1.324 0-2.593.5268-3.529 1.4645-.936.9376-1.462 2.2094-1.462 3.5355v31.5c0 .663-.263 1.299-.731 1.768s-1.103.732-1.764.732h-107.3019v10h107.3019c3.307-.005 6.478-1.324 8.816-3.667 2.339-2.343 3.655-5.519 3.661-8.833z" fill="#7dfb9a"/><path d="m119.778 180v-40h14.973c6.618 0 12.965-2.634 17.645-7.322 4.68-4.689 7.309-11.048 7.309-17.678v-40.07c-.022-5.3803 1.19-10.6936 3.543-15.53l5.859-12.06c.403-.7966.593-1.6845.551-2.5767s-.314-1.7582-.79-2.5133c-.679-1.0358-1.718-1.7822-2.915-2.0944-1.196-.3123-2.466-.1682-3.563.4044l-9.762 5.1c-5.519 2.8797-11.655 4.3693-17.877 4.34-5.75.0082-11.322 2.0017-15.776 5.6447-4.455 3.643-7.52 8.7128-8.679 14.3553h-90.3329v10h99.8149v-4.56c-.047-3.9071 1.401-7.684 4.046-10.5553 2.645-2.8714 6.287-4.6192 10.178-4.8847 2.028-.1017 4.056.211 5.96.9191 1.904.7082 3.644 1.7969 5.115 3.2001 1.47 1.4031 2.64 3.0913 3.439 4.9619.799 1.8705 1.21 3.8843 1.207 5.9189v40c0 3.978-1.577 7.794-4.385 10.607s-6.616 4.393-10.587 4.393h-114.7879v10h69.8708v40h-9.9816c-2.6472 0-5.1861 1.054-7.058 2.929s-2.9235 4.419-2.9235 7.071h29.9446v-50h9.9816v50h29.945c0-2.652-1.052-5.196-2.924-7.071s-4.411-2.929-7.058-2.929z" fill="#7dfb9a"/></svg>