<svg id="Layer_1" data-name="Layer 1" xmlns="http://www.w3.org/2000/svg" viewBox="0 0 550 210"><defs><style>.cls-1{fill:#0a1d3c;}.cls-2{fill:#7dfb9a;}</style></defs><title>larq-logo-h-pos</title><path class="cls-1" d="M170,20H40A20,20,0,0,0,20,40V170a20,20,0,0,0,20,20H170a20,20,0,0,0,20-20V40A20,20,0,0,0,170,20Z"/><rect class="cls-1" x="70" y="190" width="10" height="20"/><rect class="cls-1" x="90" y="190" width="10" height="20"/><rect class="cls-1" x="110" y="190" width="10" height="20"/><rect class="cls-1" x="130" y="190" width="10" height="20"/><rect class="cls-1" y="130" width="20" height="10"/><rect class="cls-1" y="110" width="20" height="10"/><rect class="cls-1" y="90" width="20" height="10"/><rect class="cls-1" y="70" width="20" height="10"/><rect class="cls-1" x="190" y="130" width="20" height="10"/><rect class="cls-1" x="190" y="110" width="20" height="10"/><rect class="cls-1" x="190" y="90" width="20" height="10"/><rect class="cls-1" x="190" y="70" width="20" height="10"/><rect class="cls-1" x="130" width="10" height="20"/><rect class="cls-1" x="110" width="10" height="20"/><rect class="cls-1" x="90" width="10" height="20"/><rect class="cls-1" x="70" width="10" height="20"/><path class="cls-2" d="M170,75v5h20V70H169.64A35.77,35.77,0,0,1,170,75Z"/><path class="cls-2" d="M159.46,140H190V130H166.62A35.11,35.11,0,0,1,159.46,140Z"/><path class="cls-2" d="M170,115a35.77,35.77,0,0,1-.36,5H190V110H170Z"/><rect class="cls-2" x="170" y="90" width="20" height="10"/><rect class="cls-2" x="70" y="20" width="10" height="40"/><rect class="cls-2" x="130" y="20" width="10" height="20"/><path class="cls-2" d="M120,43.39V20H110V50.55A35.11,35.11,0,0,1,120,43.39Z"/><rect class="cls-2" x="90" y="20" width="10" height="40"/><polygon class="cls-2" points="120 90 25 90 20 90 20 100 120 100 120 90"/><path class="cls-2" d="M140,107.5V76a5,5,0,0,0-10,0v31.5a2.5,2.5,0,0,1-2.5,2.5H20v10H127.5A12.52,12.52,0,0,0,140,107.5Z"/><path class="cls-2" d="M120,180V140h15a25,25,0,0,0,25-25V74.93a35.12,35.12,0,0,1,3.55-15.53l5.87-12.06a5.16,5.16,0,0,0-.24-5.09,5,5,0,0,0-6.49-1.69l-9.78,5.1A38.38,38.38,0,0,1,135,50h0a25.05,25.05,0,0,0-24.5,20H20V80H120V75.44A15.29,15.29,0,0,1,134.25,60,15,15,0,0,1,150,75v40a15,15,0,0,1-15,15H20v10H90v40H80a10,10,0,0,0-10,10h30V140h10v50h30a10,10,0,0,0-10-10Z"/><path class="cls-1" d="M250,115V50H240v65a25,25,0,0,0,25,25h45V130H265A15,15,0,0,1,250,115Z"/><path class="cls-1" d="M405,95v45h10V95a15,15,0,0,1,15-15h20V70H430A25,25,0,0,0,405,95Z"/><path class="cls-1" d="M360,70H325V80h35a15,15,0,0,1,15,15v5H325a5,5,0,0,0-5,5v10c0,13.55,11.91,25,26,25h34a5,5,0,0,0,5-5V95A25,25,0,0,0,360,70Zm15,60H346c-8.52,0-16-7-16-15v-5h45Z"/><path class="cls-1" d="M550,147.9l-15-15V95a25,25,0,0,0-25-25H470a5,5,0,0,0-5,5v40a25,25,0,0,0,25,25h37.93l15,15ZM490,130a15,15,0,0,1-15-15V80h35a15,15,0,0,1,15,15v27.93l-16.46-16.47-7.08,7.08L517.93,130Z"/></svg>